<?xml version="1.0" standalone="no"?>
<!DOCTYPE svg PUBLIC "-//W3C//DTD SVG 20010904//EN"
 "http://www.w3.org/TR/2001/REC-SVG-20010904/DTD/svg10.dtd">
<!-- <svg version="1.0" xmlns="http://www.w3.org/2000/svg"
 width="400" height="400" viewBox="0 0 320 320"
 preserveAspectRatio="xMidYMid meet"> -->
 <svg version="1.0" xmlns="http://www.w3.org/2000/svg"
 width="40" height="40" viewBox="0 0 320 320"
 preserveAspectRatio="xMidYMid meet">

<g transform="translate(0.000000,359.000000) scale(0.100000,-0.100000)"
fill="#000000" stroke="none">
<path d="M1517 3580 c-257 -25 -522 -116 -730 -253 -397 -261 -661 -734 -752
-1348 -30 -206 -44 -547 -26 -649 5 -25 9 -36 10 -25 0 11 14 72 30 135 116
459 402 900 755 1162 161 120 322 198 502 244 96 24 127 27 259 27 201 -1 311
-27 502 -120 51 -25 101 -43 114 -41 25 3 48 35 272 357 120 172 128 198 80
242 -105 95 -369 208 -581 249 -117 22 -315 31 -435 20z"/>


<path d="M1130 2583 c-50 -18 -207 -102 -275 -148 -160 -107 -276 -222 -383
-380 -44 -66 -122 -221 -122 -243 0 -28 70 -222 106 -294 120 -241 327 -458
569 -597 277 -159 633 -217 949 -156 162 31 361 111 501 200 96 62 98 90 12
211 -35 49 -105 150 -157 224 -113 163 -127 180 -155 180 -12 0 -40 -12 -61
-27 -57 -39 -191 -99 -254 -114 -71 -17 -249 -17 -320 0 -192 46 -360 183
-449 366 -59 119 -75 189 -75 335 0 150 22 241 89 368 24 45 43 82 42 81 -1 0
-9 -3 -17 -6z"/>
</g>
</svg>
